<mxfile host="app.diagrams.net" agent="Mozilla/5.0 (Windows NT 10.0; Win64; x64) AppleWebKit/537.36 (KHTML, like Gecko) Chrome/136.0.0.0 Safari/537.36" version="27.0.5">
  <diagram name="Page-1" id="2YBvvXClWsGukQMizWep">
    <mxGraphModel dx="1281" dy="567" grid="1" gridSize="10" guides="1" tooltips="1" connect="1" arrows="1" fold="1" page="1" pageScale="1" pageWidth="850" pageHeight="1100" math="0" shadow="0">
      <root>
        <mxCell id="0" />
        <mxCell id="1" parent="0" />
        <mxCell id="9glNxifa_7jW5sE1-gBq-1" value="Actor" style="shape=umlActor;verticalLabelPosition=bottom;verticalAlign=top;html=1;outlineConnect=0;" parent="1" vertex="1">
          <mxGeometry x="20" y="20" width="30" height="60" as="geometry" />
        </mxCell>
        <mxCell id="9glNxifa_7jW5sE1-gBq-3" value="DB" style="rounded=0;whiteSpace=wrap;html=1;" parent="1" vertex="1">
          <mxGeometry x="500" y="20" width="110" height="20" as="geometry" />
        </mxCell>
        <mxCell id="9glNxifa_7jW5sE1-gBq-4" value="ReservationInfoScreen&amp;nbsp;" style="rounded=0;whiteSpace=wrap;html=1;" parent="1" vertex="1">
          <mxGeometry x="340" y="20" width="130" height="20" as="geometry" />
        </mxCell>
        <mxCell id="9glNxifa_7jW5sE1-gBq-5" value="Class" style="rounded=0;whiteSpace=wrap;html=1;" parent="1" vertex="1">
          <mxGeometry x="230" y="20" width="80" height="20" as="geometry" />
        </mxCell>
        <mxCell id="9glNxifa_7jW5sE1-gBq-6" value="HomeScreen" style="rounded=0;whiteSpace=wrap;html=1;" parent="1" vertex="1">
          <mxGeometry x="110" y="20" width="90" height="20" as="geometry" />
        </mxCell>
        <mxCell id="9glNxifa_7jW5sE1-gBq-8" value="" style="endArrow=none;dashed=1;html=1;rounded=0;fontSize=12;startSize=8;endSize=8;curved=1;" parent="1" edge="1">
          <mxGeometry width="50" height="50" relative="1" as="geometry">
            <mxPoint x="544.5" y="600" as="sourcePoint" />
            <mxPoint x="544.5" y="40" as="targetPoint" />
          </mxGeometry>
        </mxCell>
        <mxCell id="9glNxifa_7jW5sE1-gBq-9" value="" style="endArrow=none;dashed=1;html=1;rounded=0;fontSize=12;startSize=8;endSize=8;curved=1;" parent="1" source="9glNxifa_7jW5sE1-gBq-17" edge="1">
          <mxGeometry width="50" height="50" relative="1" as="geometry">
            <mxPoint x="404.5" y="600" as="sourcePoint" />
            <mxPoint x="404.5" y="40" as="targetPoint" />
          </mxGeometry>
        </mxCell>
        <mxCell id="9glNxifa_7jW5sE1-gBq-10" value="" style="endArrow=none;dashed=1;html=1;rounded=0;fontSize=12;startSize=8;endSize=8;curved=1;" parent="1" edge="1">
          <mxGeometry width="50" height="50" relative="1" as="geometry">
            <mxPoint x="269.5" y="600" as="sourcePoint" />
            <mxPoint x="269.5" y="40" as="targetPoint" />
          </mxGeometry>
        </mxCell>
        <mxCell id="9glNxifa_7jW5sE1-gBq-11" value="" style="endArrow=none;dashed=1;html=1;rounded=0;fontSize=12;startSize=8;endSize=8;curved=1;" parent="1" source="9glNxifa_7jW5sE1-gBq-13" edge="1">
          <mxGeometry width="50" height="50" relative="1" as="geometry">
            <mxPoint x="154.5" y="600" as="sourcePoint" />
            <mxPoint x="154.5" y="40" as="targetPoint" />
          </mxGeometry>
        </mxCell>
        <mxCell id="9glNxifa_7jW5sE1-gBq-12" value="" style="endArrow=none;dashed=1;html=1;rounded=0;fontSize=12;startSize=8;endSize=8;curved=1;" parent="1" edge="1">
          <mxGeometry width="50" height="50" relative="1" as="geometry">
            <mxPoint x="40" y="600" as="sourcePoint" />
            <mxPoint x="40" y="110" as="targetPoint" />
          </mxGeometry>
        </mxCell>
        <mxCell id="9glNxifa_7jW5sE1-gBq-14" value="" style="endArrow=none;dashed=1;html=1;rounded=0;fontSize=12;startSize=8;endSize=8;curved=1;" parent="1" target="9glNxifa_7jW5sE1-gBq-13" edge="1">
          <mxGeometry width="50" height="50" relative="1" as="geometry">
            <mxPoint x="154.5" y="600" as="sourcePoint" />
            <mxPoint x="154.5" y="40" as="targetPoint" />
          </mxGeometry>
        </mxCell>
        <mxCell id="9glNxifa_7jW5sE1-gBq-13" value="" style="html=1;points=[[0,0,0,0,5],[0,1,0,0,-5],[1,0,0,0,5],[1,1,0,0,-5]];perimeter=orthogonalPerimeter;outlineConnect=0;targetShapes=umlLifeline;portConstraint=eastwest;newEdgeStyle={&quot;curved&quot;:0,&quot;rounded&quot;:0};fillColor=#0050ef;fontColor=#ffffff;strokeColor=#001DBC;" parent="1" vertex="1">
          <mxGeometry x="150" y="100" width="10" height="50" as="geometry" />
        </mxCell>
        <mxCell id="9glNxifa_7jW5sE1-gBq-16" value="" style="html=1;points=[[0,0,0,0,5],[0,1,0,0,-5],[1,0,0,0,5],[1,1,0,0,-5]];perimeter=orthogonalPerimeter;outlineConnect=0;targetShapes=umlLifeline;portConstraint=eastwest;newEdgeStyle={&quot;curved&quot;:0,&quot;rounded&quot;:0};fillColor=#0050ef;fontColor=#ffffff;strokeColor=#001DBC;" parent="1" vertex="1">
          <mxGeometry x="540" y="170" width="10" height="40" as="geometry" />
        </mxCell>
        <mxCell id="9glNxifa_7jW5sE1-gBq-18" value="" style="html=1;points=[[0,0,0,0,5],[0,1,0,0,-5],[1,0,0,0,5],[1,1,0,0,-5]];perimeter=orthogonalPerimeter;outlineConnect=0;targetShapes=umlLifeline;portConstraint=eastwest;newEdgeStyle={&quot;curved&quot;:0,&quot;rounded&quot;:0};fillColor=#0050ef;fontColor=#ffffff;strokeColor=#001DBC;" parent="1" vertex="1">
          <mxGeometry x="265" y="90" width="10" height="210" as="geometry" />
        </mxCell>
        <mxCell id="9glNxifa_7jW5sE1-gBq-20" value="" style="endArrow=none;dashed=1;html=1;rounded=0;fontSize=12;startSize=8;endSize=8;curved=1;" parent="1" target="9glNxifa_7jW5sE1-gBq-17" edge="1">
          <mxGeometry width="50" height="50" relative="1" as="geometry">
            <mxPoint x="404.5" y="600" as="sourcePoint" />
            <mxPoint x="404.5" y="40" as="targetPoint" />
          </mxGeometry>
        </mxCell>
        <mxCell id="9glNxifa_7jW5sE1-gBq-17" value="" style="html=1;points=[[0,0,0,0,5],[0,1,0,0,-5],[1,0,0,0,5],[1,1,0,0,-5]];perimeter=orthogonalPerimeter;outlineConnect=0;targetShapes=umlLifeline;portConstraint=eastwest;newEdgeStyle={&quot;curved&quot;:0,&quot;rounded&quot;:0};fillColor=#0050ef;fontColor=#ffffff;strokeColor=#001DBC;" parent="1" vertex="1">
          <mxGeometry x="400" y="250" width="10" height="340" as="geometry" />
        </mxCell>
        <mxCell id="9glNxifa_7jW5sE1-gBq-21" value="Select Reservation&lt;div&gt;Info&lt;/div&gt;" style="html=1;verticalAlign=bottom;endArrow=block;curved=0;rounded=0;fontSize=12;startSize=8;endSize=8;" parent="1" target="9glNxifa_7jW5sE1-gBq-13" edge="1">
          <mxGeometry width="80" relative="1" as="geometry">
            <mxPoint x="40" y="139.5" as="sourcePoint" />
            <mxPoint x="120" y="139.5" as="targetPoint" />
          </mxGeometry>
        </mxCell>
        <mxCell id="9glNxifa_7jW5sE1-gBq-22" value="display()" style="html=1;verticalAlign=bottom;endArrow=block;curved=0;rounded=0;fontSize=12;startSize=8;endSize=8;entryX=1;entryY=0;entryDx=0;entryDy=5;entryPerimeter=0;" parent="1" edge="1">
          <mxGeometry width="80" relative="1" as="geometry">
            <mxPoint x="265" y="99" as="sourcePoint" />
            <mxPoint x="160" y="99" as="targetPoint" />
          </mxGeometry>
        </mxCell>
        <mxCell id="9glNxifa_7jW5sE1-gBq-23" value="ReservInfo()" style="html=1;verticalAlign=bottom;endArrow=block;curved=0;rounded=0;fontSize=12;startSize=8;endSize=8;" parent="1" target="9glNxifa_7jW5sE1-gBq-18" edge="1">
          <mxGeometry width="80" relative="1" as="geometry">
            <mxPoint x="160" y="150" as="sourcePoint" />
            <mxPoint x="240" y="150" as="targetPoint" />
          </mxGeometry>
        </mxCell>
        <mxCell id="9glNxifa_7jW5sE1-gBq-24" value="GetInfo()" style="html=1;verticalAlign=bottom;endArrow=block;curved=0;rounded=0;fontSize=12;startSize=8;endSize=8;" parent="1" target="9glNxifa_7jW5sE1-gBq-16" edge="1">
          <mxGeometry x="0.5472" y="10" width="80" relative="1" as="geometry">
            <mxPoint x="275" y="170" as="sourcePoint" />
            <mxPoint x="355" y="170" as="targetPoint" />
            <mxPoint as="offset" />
          </mxGeometry>
        </mxCell>
        <mxCell id="9glNxifa_7jW5sE1-gBq-25" value="return results" style="html=1;verticalAlign=bottom;endArrow=open;dashed=1;endSize=8;curved=0;rounded=0;fontSize=12;entryX=1.5;entryY=0.571;entryDx=0;entryDy=0;entryPerimeter=0;" parent="1" target="9glNxifa_7jW5sE1-gBq-18" edge="1">
          <mxGeometry x="-0.6154" relative="1" as="geometry">
            <mxPoint x="540" y="210" as="sourcePoint" />
            <mxPoint x="460" y="210" as="targetPoint" />
            <mxPoint as="offset" />
          </mxGeometry>
        </mxCell>
        <mxCell id="9glNxifa_7jW5sE1-gBq-26" value="showReserv&lt;div&gt;InfoScreen()&lt;/div&gt;" style="html=1;verticalAlign=bottom;endArrow=block;curved=0;rounded=0;fontSize=12;startSize=8;endSize=8;" parent="1" edge="1">
          <mxGeometry x="0.008" width="80" relative="1" as="geometry">
            <mxPoint x="275" y="250" as="sourcePoint" />
            <mxPoint x="400" y="250" as="targetPoint" />
            <mxPoint as="offset" />
          </mxGeometry>
        </mxCell>
        <mxCell id="9glNxifa_7jW5sE1-gBq-28" value="Scans QR Code" style="html=1;verticalAlign=bottom;endArrow=block;curved=0;rounded=0;fontSize=12;startSize=8;endSize=8;" parent="1" target="9glNxifa_7jW5sE1-gBq-17" edge="1">
          <mxGeometry x="-0.7222" y="5" width="80" relative="1" as="geometry">
            <mxPoint x="40" y="284.5" as="sourcePoint" />
            <mxPoint x="120" y="284.5" as="targetPoint" />
            <mxPoint y="1" as="offset" />
          </mxGeometry>
        </mxCell>
        <mxCell id="9glNxifa_7jW5sE1-gBq-29" value="alt" style="shape=umlFrame;whiteSpace=wrap;html=1;pointerEvents=0;" parent="1" vertex="1">
          <mxGeometry x="310" y="350" width="410" height="280" as="geometry" />
        </mxCell>
        <mxCell id="9glNxifa_7jW5sE1-gBq-2" value="ParkingBar" style="rounded=0;whiteSpace=wrap;html=1;" parent="1" vertex="1">
          <mxGeometry x="620" y="350" width="100" height="20" as="geometry" />
        </mxCell>
        <mxCell id="9glNxifa_7jW5sE1-gBq-31" value="" style="endArrow=none;dashed=1;html=1;rounded=0;fontSize=12;startSize=8;endSize=8;curved=1;" parent="1" source="9glNxifa_7jW5sE1-gBq-15" edge="1">
          <mxGeometry width="50" height="50" relative="1" as="geometry">
            <mxPoint x="684.5" y="440" as="sourcePoint" />
            <mxPoint x="684.5" y="370" as="targetPoint" />
          </mxGeometry>
        </mxCell>
        <mxCell id="9glNxifa_7jW5sE1-gBq-32" value="" style="endArrow=none;dashed=1;html=1;rounded=0;fontSize=12;startSize=8;endSize=8;curved=1;" parent="1" target="9glNxifa_7jW5sE1-gBq-15" edge="1">
          <mxGeometry width="50" height="50" relative="1" as="geometry">
            <mxPoint x="684.5" y="440" as="sourcePoint" />
            <mxPoint x="684.5" y="370" as="targetPoint" />
          </mxGeometry>
        </mxCell>
        <mxCell id="9glNxifa_7jW5sE1-gBq-15" value="" style="html=1;points=[[0,0,0,0,5],[0,1,0,0,-5],[1,0,0,0,5],[1,1,0,0,-5]];perimeter=orthogonalPerimeter;outlineConnect=0;targetShapes=umlLifeline;portConstraint=eastwest;newEdgeStyle={&quot;curved&quot;:0,&quot;rounded&quot;:0};fillColor=#0050ef;fontColor=#ffffff;strokeColor=#001DBC;" parent="1" vertex="1">
          <mxGeometry x="680" y="450" width="10" height="10" as="geometry" />
        </mxCell>
        <mxCell id="9glNxifa_7jW5sE1-gBq-33" value="" style="endArrow=none;dashed=1;html=1;rounded=0;fontSize=12;startSize=8;endSize=8;curved=1;" parent="1" target="9glNxifa_7jW5sE1-gBq-15" edge="1">
          <mxGeometry width="50" height="50" relative="1" as="geometry">
            <mxPoint x="684.5" y="630" as="sourcePoint" />
            <mxPoint x="684.5" y="470" as="targetPoint" />
          </mxGeometry>
        </mxCell>
        <mxCell id="9glNxifa_7jW5sE1-gBq-34" value="Checks&amp;nbsp;&lt;div&gt;QR&lt;/div&gt;" style="html=1;verticalAlign=bottom;endArrow=block;curved=0;rounded=0;fontSize=12;startSize=8;endSize=8;" parent="1" target="9glNxifa_7jW5sE1-gBq-17" edge="1">
          <mxGeometry x="0.2308" y="30" width="80" relative="1" as="geometry">
            <mxPoint x="410" y="300" as="sourcePoint" />
            <mxPoint x="415" y="335" as="targetPoint" />
            <Array as="points">
              <mxPoint x="460" y="300" />
              <mxPoint x="460" y="335" />
            </Array>
            <mxPoint as="offset" />
          </mxGeometry>
        </mxCell>
        <mxCell id="9glNxifa_7jW5sE1-gBq-35" value="open bar" style="html=1;verticalAlign=bottom;endArrow=block;curved=0;rounded=0;fontSize=12;startSize=8;endSize=8;" parent="1" target="9glNxifa_7jW5sE1-gBq-15" edge="1">
          <mxGeometry x="0.4074" y="5" width="80" relative="1" as="geometry">
            <mxPoint x="410" y="449.5" as="sourcePoint" />
            <mxPoint x="490" y="449.5" as="targetPoint" />
            <mxPoint y="1" as="offset" />
          </mxGeometry>
        </mxCell>
        <mxCell id="9glNxifa_7jW5sE1-gBq-36" value="return&amp;nbsp;&lt;div&gt;&quot;Έγκριση&quot;&lt;/div&gt;" style="html=1;verticalAlign=bottom;endArrow=block;curved=0;rounded=0;fontSize=12;startSize=8;endSize=8;" parent="1" edge="1">
          <mxGeometry x="0.2296" y="30" width="80" relative="1" as="geometry">
            <mxPoint x="410" y="390" as="sourcePoint" />
            <mxPoint x="410" y="425" as="targetPoint" />
            <Array as="points">
              <mxPoint x="460" y="390" />
              <mxPoint x="460" y="425" />
            </Array>
            <mxPoint as="offset" />
          </mxGeometry>
        </mxCell>
        <mxCell id="9glNxifa_7jW5sE1-gBq-37" value="[Check ok]" style="text;html=1;align=center;verticalAlign=middle;whiteSpace=wrap;rounded=0;" parent="1" vertex="1">
          <mxGeometry x="410" y="345" width="60" height="30" as="geometry" />
        </mxCell>
        <mxCell id="9glNxifa_7jW5sE1-gBq-38" value="" style="endArrow=none;dashed=1;html=1;rounded=0;fontSize=12;startSize=8;endSize=8;curved=1;" parent="1" edge="1">
          <mxGeometry width="50" height="50" relative="1" as="geometry">
            <mxPoint x="290" y="510" as="sourcePoint" />
            <mxPoint x="740" y="510" as="targetPoint" />
          </mxGeometry>
        </mxCell>
        <mxCell id="9glNxifa_7jW5sE1-gBq-39" value="[else]" style="text;html=1;align=center;verticalAlign=middle;whiteSpace=wrap;rounded=0;" parent="1" vertex="1">
          <mxGeometry x="410" y="510" width="60" height="30" as="geometry" />
        </mxCell>
        <mxCell id="9glNxifa_7jW5sE1-gBq-40" value="return&amp;nbsp;&lt;div&gt;&quot;Wrong&amp;nbsp;&lt;/div&gt;&lt;div&gt;QR Code&quot;&quot;&lt;/div&gt;" style="html=1;verticalAlign=bottom;endArrow=block;curved=0;rounded=0;fontSize=12;startSize=8;endSize=8;" parent="1" edge="1">
          <mxGeometry x="0.1852" y="30" width="80" relative="1" as="geometry">
            <mxPoint x="410" y="550" as="sourcePoint" />
            <mxPoint x="410" y="585" as="targetPoint" />
            <Array as="points">
              <mxPoint x="460" y="550" />
              <mxPoint x="460" y="585" />
            </Array>
            <mxPoint as="offset" />
          </mxGeometry>
        </mxCell>
      </root>
    </mxGraphModel>
  </diagram>
</mxfile>
